<?xml version="1.0" standalone="no"?>
<!DOCTYPE svg PUBLIC "-//W3C//DTD SVG 20010904//EN"
 "http://www.w3.org/TR/2001/REC-SVG-20010904/DTD/svg10.dtd">
<svg version="1.0" xmlns="http://www.w3.org/2000/svg"
 width="700.000000pt" height="700.000000pt" viewBox="0 0 700.000000 700.000000"
 preserveAspectRatio="xMidYMid meet">
<metadata>
Created by potrace 1.11, written by Peter Selinger 2001-2013
</metadata>
<g transform="translate(0.000000,700.000000) scale(0.100000,-0.100000)"
fill="#000000" stroke="none">
<path d="M4015 6980 c-362 -52 -668 -305 -778 -646 -29 -92 -34 -111 -43 -185
-9 -69 -9 -2056 0 -2127 32 -262 176 -503 391 -657 120 -85 238 -136 400 -171
17 -3 503 -7 1080 -8 1113 -2 1122 -2 1264 45 246 81 469 277 569 499 43 96
51 118 71 210 20 92 20 123 21 1135 0 623 -4 1062 -10 1095 -16 95 -20 111
-45 183 -57 162 -155 299 -308 430 -57 48 -188 120 -274 149 -160 56 -169 56
-1273 55 -558 0 -1037 -3 -1065 -7z m2170 -662 c89 -49 136 -106 160 -197 18
-71 18 -2003 -1 -2074 -28 -107 -115 -192 -225 -219 -43 -11 -248 -13 -1049
-12 l-995 2 -59 22 c-70 27 -131 84 -167 155 l-24 50 0 1040 0 1040 26 51 c34
66 55 90 104 122 82 53 45 51 1150 49 l1030 -2 50 -27z"/>
<path d="M849 5716 c-2 -2 -23 -6 -47 -10 -214 -29 -462 -181 -600 -369 -59
-79 -134 -226 -147 -287 -2 -8 -11 -42 -21 -75 -15 -52 -18 -116 -20 -490 -3
-458 1 -506 47 -645 115 -347 430 -607 784 -648 114 -12 854 -7 925 7 331 66
608 301 720 610 54 148 59 196 59 641 0 364 -2 415 -19 501 -32 156 -101 301
-199 419 -48 58 -132 139 -160 154 -9 5 -18 12 -21 15 -11 15 -109 72 -161 95
-59 26 -168 60 -229 72 -37 7 -904 17 -911 10z m836 -640 c75 -21 165 -96 196
-164 32 -69 34 -109 33 -488 l-1 -360 -27 -60 c-44 -97 -117 -156 -220 -178
-68 -15 -735 -13 -791 2 -93 26 -170 97 -205 190 -17 45 -19 83 -20 430 0 357
1 383 20 434 23 63 68 120 120 153 77 48 106 51 499 50 201 -1 380 -5 396 -9z"/>
<path d="M860 2543 c-73 -8 -208 -47 -285 -81 -140 -63 -259 -157 -357 -280
-33 -42 -64 -85 -69 -96 -5 -12 -20 -41 -34 -65 -35 -62 -73 -176 -88 -267
-17 -96 -21 -801 -6 -915 52 -387 333 -699 724 -805 64 -17 110 -19 535 -19
456 0 467 0 550 23 367 101 636 390 704 757 13 65 15 160 12 510 -2 237 -6
441 -9 455 -3 14 -9 38 -12 54 -9 43 -45 146 -68 191 -125 252 -354 440 -623
512 l-99 27 -420 1 c-231 1 -436 0 -455 -2z m840 -646 c100 -29 179 -117 203
-224 17 -78 15 -738 -2 -803 -26 -95 -108 -179 -206 -211 -30 -10 -135 -13
-410 -13 -315 0 -378 3 -426 17 -69 21 -134 76 -174 148 l-30 54 0 410 0 410
28 57 c16 32 47 74 70 94 86 74 119 79 539 78 296 0 362 -3 408 -17z"/>
<path d="M4020 2535 c-426 -70 -756 -421 -797 -850 -9 -95 -9 -734 1 -820 15
-140 64 -286 133 -400 114 -187 314 -343 523 -408 139 -43 196 -48 623 -47
423 1 462 5 599 51 332 111 582 407 639 757 16 103 12 852 -5 944 -78 404
-387 707 -791 773 -106 18 -816 17 -925 0z m900 -644 c70 -26 135 -88 169
-160 l26 -56 0 -400 0 -400 -25 -50 c-33 -66 -90 -122 -158 -152 l-57 -26
-370 -1 c-405 -2 -445 2 -520 54 -44 30 -80 72 -111 130 -18 32 -19 63 -21
430 -2 353 -1 400 15 445 34 99 120 176 222 199 30 7 184 11 412 10 345 -1
366 -2 418 -23z"/>
</g>
</svg>
